<svg xmlns="http://www.w3.org/2000/svg" viewBox="0 0 604 446.6" width="604" height="446.6" style="--bg:#FFFFFF;--fg:#27272A;background:#FFFFFF" role="img" aria-roledescription="user journey" aria-labelledby="journey-a11y-title">
<title id="journey-a11y-title">My working day</title>
<style>
  @import url('https://fonts.googleapis.com/css2?family=Inter:wght@400;500;600;700&amp;display=swap');
  text { font-family: 'Inter', system-ui, sans-serif; }
  svg {
    /* Derived from --bg and --fg (overridable via --line, --accent, etc.) */
    --_text:          #27272A;
    --_text-sec:      #7d7d7f;
    --_text-muted:    #a9a9aa;
    --_text-faint:    #c9c9ca;
    --_line:          #939395;
    --_arrow:         #47474a;
    --_node-fill:     #f9f9f9;
    --_node-stroke:   #d4d4d4;
    --_group-fill:    #FFFFFF;
    --_group-hdr:     #f4f4f4;
    --_inner-stroke:  #e5e5e5;
    --_key-badge:     #e9e9ea;
  }
</style>
<style>
  .journey-title { fill: #27272A; }
  .journey-section-bg { fill: #fafafa; stroke: #d4d4d4; stroke-width: 1; }
  .journey-section-band { fill: #f0f0f1; stroke: #d4d4d4; stroke-width: 1; }
  .journey-section-label { fill: #7d7d7f; }
  .journey-task-card { fill: #f9f9f9; stroke: #d4d4d4; stroke-width: 1; }
  .journey-task-accent { fill: #dedede; }
  .journey-task-text { fill: #27272A; }
  .journey-score-cell-filled { fill: #47474a; stroke: #47474a; stroke-width: 1; }
  .journey-score-cell-empty { fill: #fcfcfc; stroke: #dcdcdc; stroke-width: 1; }
  .journey-actor-pill { fill: #f0f0f1; stroke: #d7d7d7; stroke-width: 1; }
  .journey-actor-text { fill: #7d7d7f; }
</style>
<g class="journey-section" data-id="section-0" data-label="Go to work">
  <rect class="journey-section-bg" x="32" y="75.4" width="256" height="343.20000000000005" rx="0" ry="0" />
  <rect class="journey-section-band" x="32" y="75.4" width="256" height="27.6" rx="0" ry="0" />
  <text x="44" y="89.2" class="journey-section-label" text-anchor="start" font-size="12" font-weight="600" dy="4.199999999999999">Go to work</text>
</g>
<g class="journey-section" data-id="section-1" data-label="Go home">
  <rect class="journey-section-bg" x="316" y="75.4" width="256" height="250" rx="0" ry="0" />
  <rect class="journey-section-band" x="316" y="75.4" width="256" height="27.6" rx="0" ry="0" />
  <text x="328" y="89.2" class="journey-section-label" text-anchor="start" font-size="12" font-weight="600" dy="4.199999999999999">Go home</text>
</g>
<g class="journey-task" data-id="task-0" data-score="5" data-section="Go to work" data-actors="Me">
  <rect class="journey-task-card" x="50" y="135" width="220" height="79.2" rx="0" ry="0" />
  <rect class="journey-task-accent" x="50" y="135" width="4" height="79.2" rx="0" ry="0" />
  <text x="68" y="155.45" class="journey-task-text" text-anchor="start" font-size="13" font-weight="500" dy="4.55">Make tea</text>
  <rect class="journey-score-cell-filled" x="186" y="150.45" width="10" height="10" rx="2" ry="2" />
  <rect class="journey-score-cell-filled" x="201" y="150.45" width="10" height="10" rx="2" ry="2" />
  <rect class="journey-score-cell-filled" x="216" y="150.45" width="10" height="10" rx="2" ry="2" />
  <rect class="journey-score-cell-filled" x="231" y="150.45" width="10" height="10" rx="2" ry="2" />
  <rect class="journey-score-cell-filled" x="246" y="150.45" width="10" height="10" rx="2" ry="2" />
  <g class="journey-actor" data-actor="Me">
    <rect class="journey-actor-pill" x="68" y="175.9" width="44" height="26.3" rx="13.15" ry="13.15" />
    <text x="90" y="189.05" class="journey-actor-text" text-anchor="middle" font-size="11" font-weight="600" dy="3.8499999999999996">Me</text>
  </g>
</g>
<g class="journey-task" data-id="task-1" data-score="3" data-section="Go to work" data-actors="Me">
  <rect class="journey-task-card" x="50" y="228.2" width="220" height="79.2" rx="0" ry="0" />
  <rect class="journey-task-accent" x="50" y="228.2" width="4" height="79.2" rx="0" ry="0" />
  <text x="68" y="248.64999999999998" class="journey-task-text" text-anchor="start" font-size="13" font-weight="500" dy="4.55">Go upstairs</text>
  <rect class="journey-score-cell-filled" x="186" y="243.64999999999998" width="10" height="10" rx="2" ry="2" />
  <rect class="journey-score-cell-filled" x="201" y="243.64999999999998" width="10" height="10" rx="2" ry="2" />
  <rect class="journey-score-cell-filled" x="216" y="243.64999999999998" width="10" height="10" rx="2" ry="2" />
  <rect class="journey-score-cell-empty" x="231" y="243.64999999999998" width="10" height="10" rx="2" ry="2" />
  <rect class="journey-score-cell-empty" x="246" y="243.64999999999998" width="10" height="10" rx="2" ry="2" />
  <g class="journey-actor" data-actor="Me">
    <rect class="journey-actor-pill" x="68" y="269.09999999999997" width="44" height="26.3" rx="13.15" ry="13.15" />
    <text x="90" y="282.24999999999994" class="journey-actor-text" text-anchor="middle" font-size="11" font-weight="600" dy="3.8499999999999996">Me</text>
  </g>
</g>
<g class="journey-task" data-id="task-2" data-score="1" data-section="Go to work" data-actors="Me, Cat">
  <rect class="journey-task-card" x="50" y="321.4" width="220" height="79.2" rx="0" ry="0" />
  <rect class="journey-task-accent" x="50" y="321.4" width="4" height="79.2" rx="0" ry="0" />
  <text x="68" y="341.84999999999997" class="journey-task-text" text-anchor="start" font-size="13" font-weight="500" dy="4.55">Do work</text>
  <rect class="journey-score-cell-filled" x="186" y="336.84999999999997" width="10" height="10" rx="2" ry="2" />
  <rect class="journey-score-cell-empty" x="201" y="336.84999999999997" width="10" height="10" rx="2" ry="2" />
  <rect class="journey-score-cell-empty" x="216" y="336.84999999999997" width="10" height="10" rx="2" ry="2" />
  <rect class="journey-score-cell-empty" x="231" y="336.84999999999997" width="10" height="10" rx="2" ry="2" />
  <rect class="journey-score-cell-empty" x="246" y="336.84999999999997" width="10" height="10" rx="2" ry="2" />
  <g class="journey-actor" data-actor="Me">
    <rect class="journey-actor-pill" x="68" y="362.29999999999995" width="44" height="26.3" rx="13.15" ry="13.15" />
    <text x="90" y="375.44999999999993" class="journey-actor-text" text-anchor="middle" font-size="11" font-weight="600" dy="3.8499999999999996">Me</text>
  </g>
  <g class="journey-actor" data-actor="Cat">
    <rect class="journey-actor-pill" x="118" y="362.29999999999995" width="44" height="26.3" rx="13.15" ry="13.15" />
    <text x="140" y="375.44999999999993" class="journey-actor-text" text-anchor="middle" font-size="11" font-weight="600" dy="3.8499999999999996">Cat</text>
  </g>
</g>
<g class="journey-task" data-id="task-3" data-score="5" data-section="Go home" data-actors="Me">
  <rect class="journey-task-card" x="334" y="135" width="220" height="79.2" rx="0" ry="0" />
  <rect class="journey-task-accent" x="334" y="135" width="4" height="79.2" rx="0" ry="0" />
  <text x="352" y="155.45" class="journey-task-text" text-anchor="start" font-size="13" font-weight="500" dy="4.55">Go downstairs</text>
  <rect class="journey-score-cell-filled" x="470" y="150.45" width="10" height="10" rx="2" ry="2" />
  <rect class="journey-score-cell-filled" x="485" y="150.45" width="10" height="10" rx="2" ry="2" />
  <rect class="journey-score-cell-filled" x="500" y="150.45" width="10" height="10" rx="2" ry="2" />
  <rect class="journey-score-cell-filled" x="515" y="150.45" width="10" height="10" rx="2" ry="2" />
  <rect class="journey-score-cell-filled" x="530" y="150.45" width="10" height="10" rx="2" ry="2" />
  <g class="journey-actor" data-actor="Me">
    <rect class="journey-actor-pill" x="352" y="175.9" width="44" height="26.3" rx="13.15" ry="13.15" />
    <text x="374" y="189.05" class="journey-actor-text" text-anchor="middle" font-size="11" font-weight="600" dy="3.8499999999999996">Me</text>
  </g>
</g>
<g class="journey-task" data-id="task-4" data-score="3" data-section="Go home" data-actors="Me">
  <rect class="journey-task-card" x="334" y="228.2" width="220" height="79.2" rx="0" ry="0" />
  <rect class="journey-task-accent" x="334" y="228.2" width="4" height="79.2" rx="0" ry="0" />
  <text x="352" y="248.64999999999998" class="journey-task-text" text-anchor="start" font-size="13" font-weight="500" dy="4.55">Sit down</text>
  <rect class="journey-score-cell-filled" x="470" y="243.64999999999998" width="10" height="10" rx="2" ry="2" />
  <rect class="journey-score-cell-filled" x="485" y="243.64999999999998" width="10" height="10" rx="2" ry="2" />
  <rect class="journey-score-cell-filled" x="500" y="243.64999999999998" width="10" height="10" rx="2" ry="2" />
  <rect class="journey-score-cell-empty" x="515" y="243.64999999999998" width="10" height="10" rx="2" ry="2" />
  <rect class="journey-score-cell-empty" x="530" y="243.64999999999998" width="10" height="10" rx="2" ry="2" />
  <g class="journey-actor" data-actor="Me">
    <rect class="journey-actor-pill" x="352" y="269.09999999999997" width="44" height="26.3" rx="13.15" ry="13.15" />
    <text x="374" y="282.24999999999994" class="journey-actor-text" text-anchor="middle" font-size="11" font-weight="600" dy="3.8499999999999996">Me</text>
  </g>
</g>
<text x="302" y="39.7" class="journey-title" text-anchor="middle" font-size="18" font-weight="600" dy="6.3">My working day</text>
</svg>