<svg xmlns="http://www.w3.org/2000/svg" viewBox="0 0 950.58 136" width="950.58" height="136" style="--bg:#FFFFFF;--fg:#27272A;background:#FFFFFF">
<style>
  @import url('https://fonts.googleapis.com/css2?family=Inter:wght@400;500;600;700&amp;display=swap');
  @import url('https://fonts.googleapis.com/css2?family=JetBrains+Mono:wght@400;500&amp;display=swap');
  text { font-family: 'Inter', system-ui, sans-serif; }
  .mono { font-family: 'JetBrains Mono', 'SF Mono', 'Fira Code', ui-monospace, monospace; }
  svg {
    /* Derived from --bg and --fg (overridable via --line, --accent, etc.) */
    --_text:          #27272A;
    --_text-sec:      #7d7d7f;
    --_text-muted:    #a9a9aa;
    --_text-faint:    #c9c9ca;
    --_line:          #939395;
    --_arrow:         #47474a;
    --_node-fill:     #f9f9f9;
    --_node-stroke:   #d4d4d4;
    --_group-fill:    #FFFFFF;
    --_group-hdr:     #f4f4f4;
    --_inner-stroke:  #e5e5e5;
    --_key-badge:     #e9e9ea;
  }
</style>
<defs>
</defs>
<polyline class="er-relationship" data-entity1="AUTHOR" data-entity2="PUBLICATION" data-cardinality1="one" data-cardinality2="zero-many" data-identifying="true" data-label="writes" points="180,68 398.162,68" fill="none" stroke="#939395" stroke-width="1" />
<polyline class="er-relationship" data-entity1="PUBLICATION" data-entity2="CITATION" data-cardinality1="one" data-cardinality2="many" data-identifying="true" data-label="receives" points="538.162,68 770.58,68" fill="none" stroke="#939395" stroke-width="1" />
<g class="entity" data-id="AUTHOR" data-label="AUTHOR">
  <rect x="40" y="40" width="140" height="56" rx="0" ry="0" fill="#f9f9f9" stroke="#d4d4d4" stroke-width="1" />
  <rect x="40" y="40" width="140" height="34" rx="0" ry="0" fill="#f4f4f4" stroke="#d4d4d4" stroke-width="1" />
  <text x="110" y="57" text-anchor="middle" font-size="13" font-weight="700" fill="#27272A" dy="4.55">AUTHOR</text>
  <line x1="40" y1="74" x2="180" y2="74" stroke="#d4d4d4" stroke-width="0.75" />
  <text x="110" y="85" text-anchor="middle" dy="0.35em" font-size="11" fill="#c9c9ca" font-style="italic">(no attributes)</text>
</g>
<g class="entity" data-id="PUBLICATION" data-label="PUBLICATION">
  <rect x="398.162" y="40" width="140" height="56" rx="0" ry="0" fill="#f9f9f9" stroke="#d4d4d4" stroke-width="1" />
  <rect x="398.162" y="40" width="140" height="34" rx="0" ry="0" fill="#f4f4f4" stroke="#d4d4d4" stroke-width="1" />
  <text x="468.162" y="57" text-anchor="middle" font-size="13" font-weight="700" fill="#27272A" dy="4.55">PUBLICATION</text>
  <line x1="398.162" y1="74" x2="538.162" y2="74" stroke="#d4d4d4" stroke-width="0.75" />
  <text x="468.162" y="85" text-anchor="middle" dy="0.35em" font-size="11" fill="#c9c9ca" font-style="italic">(no attributes)</text>
</g>
<g class="entity" data-id="CITATION" data-label="CITATION">
  <rect x="770.58" y="40" width="140" height="56" rx="0" ry="0" fill="#f9f9f9" stroke="#d4d4d4" stroke-width="1" />
  <rect x="770.58" y="40" width="140" height="34" rx="0" ry="0" fill="#f4f4f4" stroke="#d4d4d4" stroke-width="1" />
  <text x="840.58" y="57" text-anchor="middle" font-size="13" font-weight="700" fill="#27272A" dy="4.55">CITATION</text>
  <line x1="770.58" y1="74" x2="910.58" y2="74" stroke="#d4d4d4" stroke-width="0.75" />
  <text x="840.58" y="85" text-anchor="middle" dy="0.35em" font-size="11" fill="#c9c9ca" font-style="italic">(no attributes)</text>
</g>
<line x1="184" y1="62" x2="184" y2="74" stroke="#939395" stroke-width="1.25" />
<line x1="188" y1="62" x2="188" y2="74" stroke="#939395" stroke-width="1.25" />
<line x1="394.162" y1="75" x2="382.162" y2="68" stroke="#939395" stroke-width="1.25" />
<line x1="394.162" y1="68" x2="382.162" y2="68" stroke="#939395" stroke-width="1.25" />
<line x1="394.162" y1="61" x2="382.162" y2="68" stroke="#939395" stroke-width="1.25" />
<circle cx="378.162" cy="68" r="4" fill="#FFFFFF" stroke="#939395" stroke-width="1.25" />
<line x1="542.162" y1="62" x2="542.162" y2="74" stroke="#939395" stroke-width="1.25" />
<line x1="546.162" y1="62" x2="546.162" y2="74" stroke="#939395" stroke-width="1.25" />
<line x1="766.58" y1="75" x2="754.58" y2="68" stroke="#939395" stroke-width="1.25" />
<line x1="766.58" y1="68" x2="754.58" y2="68" stroke="#939395" stroke-width="1.25" />
<line x1="766.58" y1="61" x2="754.58" y2="68" stroke="#939395" stroke-width="1.25" />
<rect x="270" y="57.85" width="38.162" height="20.3" rx="2" ry="2" fill="#FFFFFF" stroke="#e5e5e5" stroke-width="0.5" />
<text x="289.081" y="68" text-anchor="middle" font-size="11" font-weight="400" fill="#a9a9aa" dy="3.8499999999999996">writes</text>
<rect x="628.162" y="57.85" width="52.418000000000006" height="20.3" rx="2" ry="2" fill="#FFFFFF" stroke="#e5e5e5" stroke-width="0.5" />
<text x="654.3710000000001" y="68" text-anchor="middle" font-size="11" font-weight="400" fill="#a9a9aa" dy="3.8499999999999996">receives</text>
</svg>