<svg xmlns="http://www.w3.org/2000/svg" viewBox="0 0 901.1 446.6" width="901.1" height="446.6" style="--bg:#FFFBF5;--fg:#521000;--line:#EBD5C1;--accent:#FF4801;--muted:#85532E;--surface:#FFFDFB;--border:#EBD5C1;background:#FFFBF5" role="img" aria-roledescription="user journey" aria-labelledby="journey-a408pa-title">
<title id="journey-a408pa-title">Research Publication Journey</title>
<style>
  @import url('https://fonts.googleapis.com/css2?family=Inter:wght@400;500;600;700&amp;display=swap');
  text { font-family: 'Inter', system-ui, sans-serif; }
  svg {
    /* Derived from --bg and --fg (overridable via --line, --accent, etc.) */
    --_text:          #521000;
    --_text-sec:      #85532E;
    --_text-muted:    #85532E;
    --_text-faint:    #d4c0b8;
    --_line:          #EBD5C1;
    --_arrow:         #FF4801;
    --_node-fill:     #FFFDFB;
    --_node-stroke:   #EBD5C1;
    --_group-fill:    #FFFBF5;
    --_group-hdr:     #f6efe9;
    --_inner-stroke:  #eadfd8;
    --_key-badge:     #eee4dd;
  }
</style>
<style>
  .journey-title { fill: #521000; }
  .journey-section-bg { fill: #fffdfa; stroke: #EBD5C1; stroke-width: 1; }
  .journey-section-band { fill: #ffede1; stroke: #EBD5C1; stroke-width: 1; }
  .journey-section-label { fill: #85532E; }
  .journey-task-card { fill: #FFFDFB; stroke: #EBD5C1; stroke-width: 1; }
  .journey-task-accent { fill: #ffdbc9; }
  .journey-task-text { fill: #521000; }
  .journey-score-cell-filled { fill: #FF4801; stroke: #FF4801; stroke-width: 1; }
  .journey-score-cell-empty { fill: #fffcf8; stroke: #efdcca; stroke-width: 1; }
  .journey-actor-pill { fill: #ffede1; stroke: #ffd4bf; stroke-width: 1; }
  .journey-actor-text { fill: #85532E; }
</style>
<g class="journey-section" data-id="section-0" data-label="Discovery">
  <rect class="journey-section-bg" x="32" y="75.4" width="256" height="250" rx="0" ry="0" />
  <rect class="journey-section-band" x="32" y="75.4" width="256" height="27.6" rx="0" ry="0" />
  <text x="44" y="89.2" class="journey-section-label" text-anchor="start" font-size="12" font-weight="600" dy="4.199999999999999">Discovery</text>
</g>
<g class="journey-section" data-id="section-1" data-label="Experiment">
  <rect class="journey-section-bg" x="316" y="75.4" width="256" height="343.20000000000005" rx="0" ry="0" />
  <rect class="journey-section-band" x="316" y="75.4" width="256" height="27.6" rx="0" ry="0" />
  <text x="328" y="89.2" class="journey-section-label" text-anchor="start" font-size="12" font-weight="600" dy="4.199999999999999">Experiment</text>
</g>
<g class="journey-section" data-id="section-2" data-label="Publication">
  <rect class="journey-section-bg" x="600" y="75.4" width="269.1" height="343.20000000000005" rx="0" ry="0" />
  <rect class="journey-section-band" x="600" y="75.4" width="269.1" height="27.6" rx="0" ry="0" />
  <text x="612" y="89.2" class="journey-section-label" text-anchor="start" font-size="12" font-weight="600" dy="4.199999999999999">Publication</text>
</g>
<g class="journey-task" data-id="task-0" data-score="5" data-section="Discovery" data-actors="Researcher">
  <rect class="journey-task-card" x="50" y="135" width="220" height="79.2" rx="0" ry="0" />
  <rect class="journey-task-accent" x="50" y="135" width="4" height="79.2" rx="0" ry="0" />
  <text x="68" y="155.45" class="journey-task-text" text-anchor="start" font-size="13" font-weight="500" dy="4.55">Read literature</text>
  <rect class="journey-score-cell-filled" x="186" y="150.45" width="10" height="10" rx="2" ry="2" />
  <rect class="journey-score-cell-filled" x="201" y="150.45" width="10" height="10" rx="2" ry="2" />
  <rect class="journey-score-cell-filled" x="216" y="150.45" width="10" height="10" rx="2" ry="2" />
  <rect class="journey-score-cell-filled" x="231" y="150.45" width="10" height="10" rx="2" ry="2" />
  <rect class="journey-score-cell-filled" x="246" y="150.45" width="10" height="10" rx="2" ry="2" />
  <g class="journey-actor" data-actor="Researcher">
    <rect class="journey-actor-pill" x="68" y="175.9" width="82.33000000000001" height="26.3" rx="13.15" ry="13.15" />
    <text x="109.165" y="189.05" class="journey-actor-text" text-anchor="middle" font-size="11" font-weight="600" dy="3.8499999999999996">Researcher</text>
  </g>
</g>
<g class="journey-task" data-id="task-1" data-score="3" data-section="Discovery" data-actors="Researcher">
  <rect class="journey-task-card" x="50" y="228.2" width="220" height="79.2" rx="0" ry="0" />
  <rect class="journey-task-accent" x="50" y="228.2" width="4" height="79.2" rx="0" ry="0" />
  <text x="68" y="248.64999999999998" class="journey-task-text" text-anchor="start" font-size="13" font-weight="500" dy="4.55">Identify gap</text>
  <rect class="journey-score-cell-filled" x="186" y="243.64999999999998" width="10" height="10" rx="2" ry="2" />
  <rect class="journey-score-cell-filled" x="201" y="243.64999999999998" width="10" height="10" rx="2" ry="2" />
  <rect class="journey-score-cell-filled" x="216" y="243.64999999999998" width="10" height="10" rx="2" ry="2" />
  <rect class="journey-score-cell-empty" x="231" y="243.64999999999998" width="10" height="10" rx="2" ry="2" />
  <rect class="journey-score-cell-empty" x="246" y="243.64999999999998" width="10" height="10" rx="2" ry="2" />
  <g class="journey-actor" data-actor="Researcher">
    <rect class="journey-actor-pill" x="68" y="269.09999999999997" width="82.33000000000001" height="26.3" rx="13.15" ry="13.15" />
    <text x="109.165" y="282.24999999999994" class="journey-actor-text" text-anchor="middle" font-size="11" font-weight="600" dy="3.8499999999999996">Researcher</text>
  </g>
</g>
<g class="journey-task" data-id="task-2" data-score="4" data-section="Experiment" data-actors="Researcher, Lab">
  <rect class="journey-task-card" x="334" y="135" width="220" height="79.2" rx="0" ry="0" />
  <rect class="journey-task-accent" x="334" y="135" width="4" height="79.2" rx="0" ry="0" />
  <text x="352" y="155.45" class="journey-task-text" text-anchor="start" font-size="13" font-weight="500" dy="4.55">Design study</text>
  <rect class="journey-score-cell-filled" x="470" y="150.45" width="10" height="10" rx="2" ry="2" />
  <rect class="journey-score-cell-filled" x="485" y="150.45" width="10" height="10" rx="2" ry="2" />
  <rect class="journey-score-cell-filled" x="500" y="150.45" width="10" height="10" rx="2" ry="2" />
  <rect class="journey-score-cell-filled" x="515" y="150.45" width="10" height="10" rx="2" ry="2" />
  <rect class="journey-score-cell-empty" x="530" y="150.45" width="10" height="10" rx="2" ry="2" />
  <g class="journey-actor" data-actor="Researcher">
    <rect class="journey-actor-pill" x="352" y="175.9" width="82.33000000000001" height="26.3" rx="13.15" ry="13.15" />
    <text x="393.165" y="189.05" class="journey-actor-text" text-anchor="middle" font-size="11" font-weight="600" dy="3.8499999999999996">Researcher</text>
  </g>
  <g class="journey-actor" data-actor="Lab">
    <rect class="journey-actor-pill" x="440.33000000000004" y="175.9" width="44" height="26.3" rx="13.15" ry="13.15" />
    <text x="462.33000000000004" y="189.05" class="journey-actor-text" text-anchor="middle" font-size="11" font-weight="600" dy="3.8499999999999996">Lab</text>
  </g>
</g>
<g class="journey-task" data-id="task-3" data-score="3" data-section="Experiment" data-actors="Lab">
  <rect class="journey-task-card" x="334" y="228.2" width="220" height="79.2" rx="0" ry="0" />
  <rect class="journey-task-accent" x="334" y="228.2" width="4" height="79.2" rx="0" ry="0" />
  <text x="352" y="248.64999999999998" class="journey-task-text" text-anchor="start" font-size="13" font-weight="500" dy="4.55">Collect data</text>
  <rect class="journey-score-cell-filled" x="470" y="243.64999999999998" width="10" height="10" rx="2" ry="2" />
  <rect class="journey-score-cell-filled" x="485" y="243.64999999999998" width="10" height="10" rx="2" ry="2" />
  <rect class="journey-score-cell-filled" x="500" y="243.64999999999998" width="10" height="10" rx="2" ry="2" />
  <rect class="journey-score-cell-empty" x="515" y="243.64999999999998" width="10" height="10" rx="2" ry="2" />
  <rect class="journey-score-cell-empty" x="530" y="243.64999999999998" width="10" height="10" rx="2" ry="2" />
  <g class="journey-actor" data-actor="Lab">
    <rect class="journey-actor-pill" x="352" y="269.09999999999997" width="44" height="26.3" rx="13.15" ry="13.15" />
    <text x="374" y="282.24999999999994" class="journey-actor-text" text-anchor="middle" font-size="11" font-weight="600" dy="3.8499999999999996">Lab</text>
  </g>
</g>
<g class="journey-task" data-id="task-4" data-score="4" data-section="Experiment" data-actors="Researcher">
  <rect class="journey-task-card" x="334" y="321.4" width="220" height="79.2" rx="0" ry="0" />
  <rect class="journey-task-accent" x="334" y="321.4" width="4" height="79.2" rx="0" ry="0" />
  <text x="352" y="341.84999999999997" class="journey-task-text" text-anchor="start" font-size="13" font-weight="500" dy="4.55">Analyze results</text>
  <rect class="journey-score-cell-filled" x="470" y="336.84999999999997" width="10" height="10" rx="2" ry="2" />
  <rect class="journey-score-cell-filled" x="485" y="336.84999999999997" width="10" height="10" rx="2" ry="2" />
  <rect class="journey-score-cell-filled" x="500" y="336.84999999999997" width="10" height="10" rx="2" ry="2" />
  <rect class="journey-score-cell-filled" x="515" y="336.84999999999997" width="10" height="10" rx="2" ry="2" />
  <rect class="journey-score-cell-empty" x="530" y="336.84999999999997" width="10" height="10" rx="2" ry="2" />
  <g class="journey-actor" data-actor="Researcher">
    <rect class="journey-actor-pill" x="352" y="362.29999999999995" width="82.33000000000001" height="26.3" rx="13.15" ry="13.15" />
    <text x="393.165" y="375.44999999999993" class="journey-actor-text" text-anchor="middle" font-size="11" font-weight="600" dy="3.8499999999999996">Researcher</text>
  </g>
</g>
<g class="journey-task" data-id="task-5" data-score="2" data-section="Publication" data-actors="Researcher">
  <rect class="journey-task-card" x="618" y="135" width="233.1" height="79.2" rx="0" ry="0" />
  <rect class="journey-task-accent" x="618" y="135" width="4" height="79.2" rx="0" ry="0" />
  <text x="636" y="155.45" class="journey-task-text" text-anchor="start" font-size="13" font-weight="500" dy="4.55">Write manuscript</text>
  <rect class="journey-score-cell-filled" x="767.1" y="150.45" width="10" height="10" rx="2" ry="2" />
  <rect class="journey-score-cell-filled" x="782.1" y="150.45" width="10" height="10" rx="2" ry="2" />
  <rect class="journey-score-cell-empty" x="797.1" y="150.45" width="10" height="10" rx="2" ry="2" />
  <rect class="journey-score-cell-empty" x="812.1" y="150.45" width="10" height="10" rx="2" ry="2" />
  <rect class="journey-score-cell-empty" x="827.1" y="150.45" width="10" height="10" rx="2" ry="2" />
  <g class="journey-actor" data-actor="Researcher">
    <rect class="journey-actor-pill" x="636" y="175.9" width="82.33000000000001" height="26.3" rx="13.15" ry="13.15" />
    <text x="677.165" y="189.05" class="journey-actor-text" text-anchor="middle" font-size="11" font-weight="600" dy="3.8499999999999996">Researcher</text>
  </g>
</g>
<g class="journey-task" data-id="task-6" data-score="3" data-section="Publication" data-actors="Reviewer">
  <rect class="journey-task-card" x="618" y="228.2" width="233.1" height="79.2" rx="0" ry="0" />
  <rect class="journey-task-accent" x="618" y="228.2" width="4" height="79.2" rx="0" ry="0" />
  <text x="636" y="248.64999999999998" class="journey-task-text" text-anchor="start" font-size="13" font-weight="500" dy="4.55">Peer review</text>
  <rect class="journey-score-cell-filled" x="767.1" y="243.64999999999998" width="10" height="10" rx="2" ry="2" />
  <rect class="journey-score-cell-filled" x="782.1" y="243.64999999999998" width="10" height="10" rx="2" ry="2" />
  <rect class="journey-score-cell-filled" x="797.1" y="243.64999999999998" width="10" height="10" rx="2" ry="2" />
  <rect class="journey-score-cell-empty" x="812.1" y="243.64999999999998" width="10" height="10" rx="2" ry="2" />
  <rect class="journey-score-cell-empty" x="827.1" y="243.64999999999998" width="10" height="10" rx="2" ry="2" />
  <g class="journey-actor" data-actor="Reviewer">
    <rect class="journey-actor-pill" x="636" y="269.09999999999997" width="67.81" height="26.3" rx="13.15" ry="13.15" />
    <text x="669.905" y="282.24999999999994" class="journey-actor-text" text-anchor="middle" font-size="11" font-weight="600" dy="3.8499999999999996">Reviewer</text>
  </g>
</g>
<g class="journey-task" data-id="task-7" data-score="5" data-section="Publication" data-actors="Researcher">
  <rect class="journey-task-card" x="618" y="321.4" width="233.1" height="79.2" rx="0" ry="0" />
  <rect class="journey-task-accent" x="618" y="321.4" width="4" height="79.2" rx="0" ry="0" />
  <text x="636" y="341.84999999999997" class="journey-task-text" text-anchor="start" font-size="13" font-weight="500" dy="4.55">Revise and publish</text>
  <rect class="journey-score-cell-filled" x="767.1" y="336.84999999999997" width="10" height="10" rx="2" ry="2" />
  <rect class="journey-score-cell-filled" x="782.1" y="336.84999999999997" width="10" height="10" rx="2" ry="2" />
  <rect class="journey-score-cell-filled" x="797.1" y="336.84999999999997" width="10" height="10" rx="2" ry="2" />
  <rect class="journey-score-cell-filled" x="812.1" y="336.84999999999997" width="10" height="10" rx="2" ry="2" />
  <rect class="journey-score-cell-filled" x="827.1" y="336.84999999999997" width="10" height="10" rx="2" ry="2" />
  <g class="journey-actor" data-actor="Researcher">
    <rect class="journey-actor-pill" x="636" y="362.29999999999995" width="82.33000000000001" height="26.3" rx="13.15" ry="13.15" />
    <text x="677.165" y="375.44999999999993" class="journey-actor-text" text-anchor="middle" font-size="11" font-weight="600" dy="3.8499999999999996">Researcher</text>
  </g>
</g>
<text x="450.55" y="39.7" class="journey-title" text-anchor="middle" font-size="18" font-weight="600" dy="6.3">Research Publication Journey</text>
</svg>